<?xml version="1.0" encoding="utf-8" standalone="no"?>
<!DOCTYPE svg PUBLIC "-//W3C//DTD SVG 1.1//EN"
  "http://www.w3.org/Graphics/SVG/1.1/DTD/svg11.dtd">
<svg xmlns:xlink="http://www.w3.org/1999/xlink" width="526.79952pt" height="339.59952pt" viewBox="0 0 526.79952 339.59952" xmlns="http://www.w3.org/2000/svg" version="1.1">
 <metadata>
  <rdf:RDF xmlns:dc="http://purl.org/dc/elements/1.1/" xmlns:cc="http://creativecommons.org/ns#" xmlns:rdf="http://www.w3.org/1999/02/22-rdf-syntax-ns#">
   <cc:Work>
    <dc:type rdf:resource="http://purl.org/dc/dcmitype/StillImage"/>
    <dc:date>2026-05-14T14:25:58.674130</dc:date>
    <dc:format>image/svg+xml</dc:format>
    <dc:creator>
     <cc:Agent>
      <dc:title>Matplotlib v3.9.2, https://matplotlib.org/</dc:title>
     </cc:Agent>
    </dc:creator>
   </cc:Work>
  </rdf:RDF>
 </metadata>
 <defs>
  <style type="text/css">*{stroke-linejoin: round; stroke-linecap: butt}</style>
 </defs>
 <g id="figure_1">
  <g id="patch_1">
   <path d="M 0 339.59952 
L 526.79952 339.59952 
L 526.79952 0 
L 0 0 
z
" style="fill: #ffffff"/>
  </g>
  <g id="axes_1">
   <g id="patch_2">
    <path d="M 32.819976 148.006589 
L 114.803899 148.006589 
Q 125.05189 148.006589 125.05189 141.860158 
L 125.05189 92.68871 
Q 125.05189 86.542279 114.803899 86.542279 
L 32.819976 86.542279 
Q 22.571986 86.542279 22.571986 92.68871 
L 22.571986 141.860158 
Q 22.571986 148.006589 32.819976 148.006589 
z
" clip-path="url(#pd170cb9c93)" style="fill: #ffffff; stroke: #475569; stroke-linejoin: miter"/>
   </g>
   <g id="patch_3">
    <path d="M 135.29988 148.006589 
L 227.531794 148.006589 
Q 237.779784 148.006589 237.779784 141.860158 
L 237.779784 92.68871 
Q 237.779784 86.542279 227.531794 86.542279 
L 135.29988 86.542279 
Q 125.05189 86.542279 125.05189 92.68871 
L 125.05189 141.860158 
Q 125.05189 148.006589 135.29988 148.006589 
z
" clip-path="url(#pd170cb9c93)" style="fill: #ffffff; stroke: #475569; stroke-linejoin: miter"/>
   </g>
   <g id="patch_4">
    <path d="M 248.027774 148.006589 
L 340.259688 148.006589 
Q 350.507678 148.006589 350.507678 141.860158 
L 350.507678 92.68871 
Q 350.507678 86.542279 340.259688 86.542279 
L 248.027774 86.542279 
Q 237.779784 86.542279 237.779784 92.68871 
L 237.779784 141.860158 
Q 237.779784 148.006589 248.027774 148.006589 
z
" clip-path="url(#pd170cb9c93)" style="fill: #ffffff; stroke: #475569; stroke-linejoin: miter"/>
   </g>
   <g id="patch_5">
    <path d="M 360.755669 148.006589 
L 463.235573 148.006589 
Q 473.483563 148.006589 473.483563 141.860158 
L 473.483563 92.68871 
Q 473.483563 86.542279 463.235573 86.542279 
L 360.755669 86.542279 
Q 350.507678 86.542279 350.507678 92.68871 
L 350.507678 141.860158 
Q 350.507678 148.006589 360.755669 148.006589 
z
" clip-path="url(#pd170cb9c93)" style="fill: #ffffff; stroke: #475569; stroke-linejoin: miter"/>
   </g>
   <g id="patch_6">
    <path d="M 160.919856 252.495917 
L 365.879664 252.495917 
Q 376.127654 252.495917 376.127654 246.349486 
L 376.127654 191.031606 
Q 376.127654 184.885175 365.879664 184.885175 
L 160.919856 184.885175 
Q 150.671866 184.885175 150.671866 191.031606 
L 150.671866 246.349486 
Q 150.671866 252.495917 160.919856 252.495917 
z
" clip-path="url(#pd170cb9c93)" style="fill: #ffffff; stroke: #475569; stroke-linejoin: miter"/>
   </g>
   <g id="text_1">
    <!-- Commit -->
    <g style="fill: #1f2937" transform="translate(54.345922 119.757872) scale(0.09 -0.09)">
     <defs>
      <path id="DejaVuSans-Bold-43" d="M 4288 256 
Q 3956 84 3597 -3 
Q 3238 -91 2847 -91 
Q 1681 -91 1000 561 
Q 319 1213 319 2328 
Q 319 3447 1000 4098 
Q 1681 4750 2847 4750 
Q 3238 4750 3597 4662 
Q 3956 4575 4288 4403 
L 4288 3438 
Q 3953 3666 3628 3772 
Q 3303 3878 2944 3878 
Q 2300 3878 1931 3465 
Q 1563 3053 1563 2328 
Q 1563 1606 1931 1193 
Q 2300 781 2944 781 
Q 3303 781 3628 887 
Q 3953 994 4288 1222 
L 4288 256 
z
" transform="scale(0.015625)"/>
      <path id="DejaVuSans-Bold-6f" d="M 2203 2784 
Q 1831 2784 1636 2517 
Q 1441 2250 1441 1747 
Q 1441 1244 1636 976 
Q 1831 709 2203 709 
Q 2569 709 2762 976 
Q 2956 1244 2956 1747 
Q 2956 2250 2762 2517 
Q 2569 2784 2203 2784 
z
M 2203 3584 
Q 3106 3584 3614 3096 
Q 4122 2609 4122 1747 
Q 4122 884 3614 396 
Q 3106 -91 2203 -91 
Q 1297 -91 786 396 
Q 275 884 275 1747 
Q 275 2609 786 3096 
Q 1297 3584 2203 3584 
z
" transform="scale(0.015625)"/>
      <path id="DejaVuSans-Bold-6d" d="M 3781 2919 
Q 3994 3244 4286 3414 
Q 4578 3584 4928 3584 
Q 5531 3584 5847 3212 
Q 6163 2841 6163 2131 
L 6163 0 
L 5038 0 
L 5038 1825 
Q 5041 1866 5042 1909 
Q 5044 1953 5044 2034 
Q 5044 2406 4934 2573 
Q 4825 2741 4581 2741 
Q 4263 2741 4089 2478 
Q 3916 2216 3909 1719 
L 3909 0 
L 2784 0 
L 2784 1825 
Q 2784 2406 2684 2573 
Q 2584 2741 2328 2741 
Q 2006 2741 1831 2477 
Q 1656 2213 1656 1722 
L 1656 0 
L 531 0 
L 531 3500 
L 1656 3500 
L 1656 2988 
Q 1863 3284 2130 3434 
Q 2397 3584 2719 3584 
Q 3081 3584 3359 3409 
Q 3638 3234 3781 2919 
z
" transform="scale(0.015625)"/>
      <path id="DejaVuSans-Bold-69" d="M 538 3500 
L 1656 3500 
L 1656 0 
L 538 0 
L 538 3500 
z
M 538 4863 
L 1656 4863 
L 1656 3950 
L 538 3950 
L 538 4863 
z
" transform="scale(0.015625)"/>
      <path id="DejaVuSans-Bold-74" d="M 1759 4494 
L 1759 3500 
L 2913 3500 
L 2913 2700 
L 1759 2700 
L 1759 1216 
Q 1759 972 1856 886 
Q 1953 800 2241 800 
L 2816 800 
L 2816 0 
L 1856 0 
Q 1194 0 917 276 
Q 641 553 641 1216 
L 641 2700 
L 84 2700 
L 84 3500 
L 641 3500 
L 641 4494 
L 1759 4494 
z
" transform="scale(0.015625)"/>
     </defs>
     <use xlink:href="#DejaVuSans-Bold-43"/>
     <use xlink:href="#DejaVuSans-Bold-6f" x="73.388672"/>
     <use xlink:href="#DejaVuSans-Bold-6d" x="142.089844"/>
     <use xlink:href="#DejaVuSans-Bold-6d" x="246.289062"/>
     <use xlink:href="#DejaVuSans-Bold-69" x="350.488281"/>
     <use xlink:href="#DejaVuSans-Bold-74" x="384.765625"/>
    </g>
   </g>
   <g id="text_2">
    <!-- Build -->
    <g style="fill: #1f2937" transform="translate(168.476227 119.757872) scale(0.09 -0.09)">
     <defs>
      <path id="DejaVuSans-Bold-42" d="M 2456 2859 
Q 2741 2859 2887 2984 
Q 3034 3109 3034 3353 
Q 3034 3594 2887 3720 
Q 2741 3847 2456 3847 
L 1791 3847 
L 1791 2859 
L 2456 2859 
z
M 2497 819 
Q 2859 819 3042 972 
Q 3225 1125 3225 1434 
Q 3225 1738 3044 1889 
Q 2863 2041 2497 2041 
L 1791 2041 
L 1791 819 
L 2497 819 
z
M 3616 2497 
Q 4003 2384 4215 2081 
Q 4428 1778 4428 1338 
Q 4428 663 3972 331 
Q 3516 0 2584 0 
L 588 0 
L 588 4666 
L 2394 4666 
Q 3366 4666 3802 4372 
Q 4238 4078 4238 3431 
Q 4238 3091 4078 2852 
Q 3919 2613 3616 2497 
z
" transform="scale(0.015625)"/>
      <path id="DejaVuSans-Bold-75" d="M 500 1363 
L 500 3500 
L 1625 3500 
L 1625 3150 
Q 1625 2866 1622 2436 
Q 1619 2006 1619 1863 
Q 1619 1441 1641 1255 
Q 1663 1069 1716 984 
Q 1784 875 1895 815 
Q 2006 756 2150 756 
Q 2500 756 2700 1025 
Q 2900 1294 2900 1772 
L 2900 3500 
L 4019 3500 
L 4019 0 
L 2900 0 
L 2900 506 
Q 2647 200 2364 54 
Q 2081 -91 1741 -91 
Q 1134 -91 817 281 
Q 500 653 500 1363 
z
" transform="scale(0.015625)"/>
      <path id="DejaVuSans-Bold-6c" d="M 538 4863 
L 1656 4863 
L 1656 0 
L 538 0 
L 538 4863 
z
" transform="scale(0.015625)"/>
      <path id="DejaVuSans-Bold-64" d="M 2919 2988 
L 2919 4863 
L 4044 4863 
L 4044 0 
L 2919 0 
L 2919 506 
Q 2688 197 2409 53 
Q 2131 -91 1766 -91 
Q 1119 -91 703 423 
Q 288 938 288 1747 
Q 288 2556 703 3070 
Q 1119 3584 1766 3584 
Q 2128 3584 2408 3439 
Q 2688 3294 2919 2988 
z
M 2181 722 
Q 2541 722 2730 984 
Q 2919 1247 2919 1747 
Q 2919 2247 2730 2509 
Q 2541 2772 2181 2772 
Q 1825 2772 1636 2509 
Q 1447 2247 1447 1747 
Q 1447 1247 1636 984 
Q 1825 722 2181 722 
z
" transform="scale(0.015625)"/>
     </defs>
     <use xlink:href="#DejaVuSans-Bold-42"/>
     <use xlink:href="#DejaVuSans-Bold-75" x="76.220703"/>
     <use xlink:href="#DejaVuSans-Bold-69" x="147.412109"/>
     <use xlink:href="#DejaVuSans-Bold-6c" x="181.689453"/>
     <use xlink:href="#DejaVuSans-Bold-64" x="215.966797"/>
    </g>
   </g>
   <g id="text_3">
    <!-- Test Run -->
    <g style="fill: #1f2937" transform="translate(272.350372 119.757872) scale(0.09 -0.09)">
     <defs>
      <path id="DejaVuSans-Bold-54" d="M 31 4666 
L 4331 4666 
L 4331 3756 
L 2784 3756 
L 2784 0 
L 1581 0 
L 1581 3756 
L 31 3756 
L 31 4666 
z
" transform="scale(0.015625)"/>
      <path id="DejaVuSans-Bold-65" d="M 4031 1759 
L 4031 1441 
L 1416 1441 
Q 1456 1047 1700 850 
Q 1944 653 2381 653 
Q 2734 653 3104 758 
Q 3475 863 3866 1075 
L 3866 213 
Q 3469 63 3072 -14 
Q 2675 -91 2278 -91 
Q 1328 -91 801 392 
Q 275 875 275 1747 
Q 275 2603 792 3093 
Q 1309 3584 2216 3584 
Q 3041 3584 3536 3087 
Q 4031 2591 4031 1759 
z
M 2881 2131 
Q 2881 2450 2695 2645 
Q 2509 2841 2209 2841 
Q 1884 2841 1681 2658 
Q 1478 2475 1428 2131 
L 2881 2131 
z
" transform="scale(0.015625)"/>
      <path id="DejaVuSans-Bold-73" d="M 3272 3391 
L 3272 2541 
Q 2913 2691 2578 2766 
Q 2244 2841 1947 2841 
Q 1628 2841 1473 2761 
Q 1319 2681 1319 2516 
Q 1319 2381 1436 2309 
Q 1553 2238 1856 2203 
L 2053 2175 
Q 2913 2066 3209 1816 
Q 3506 1566 3506 1031 
Q 3506 472 3093 190 
Q 2681 -91 1863 -91 
Q 1516 -91 1145 -36 
Q 775 19 384 128 
L 384 978 
Q 719 816 1070 734 
Q 1422 653 1784 653 
Q 2113 653 2278 743 
Q 2444 834 2444 1013 
Q 2444 1163 2330 1236 
Q 2216 1309 1875 1350 
L 1678 1375 
Q 931 1469 631 1722 
Q 331 1975 331 2491 
Q 331 3047 712 3315 
Q 1094 3584 1881 3584 
Q 2191 3584 2531 3537 
Q 2872 3491 3272 3391 
z
" transform="scale(0.015625)"/>
      <path id="DejaVuSans-Bold-20" transform="scale(0.015625)"/>
      <path id="DejaVuSans-Bold-52" d="M 2297 2597 
Q 2675 2597 2839 2737 
Q 3003 2878 3003 3200 
Q 3003 3519 2839 3656 
Q 2675 3794 2297 3794 
L 1791 3794 
L 1791 2597 
L 2297 2597 
z
M 1791 1766 
L 1791 0 
L 588 0 
L 588 4666 
L 2425 4666 
Q 3347 4666 3776 4356 
Q 4206 4047 4206 3378 
Q 4206 2916 3982 2619 
Q 3759 2322 3309 2181 
Q 3556 2125 3751 1926 
Q 3947 1728 4147 1325 
L 4800 0 
L 3519 0 
L 2950 1159 
Q 2778 1509 2601 1637 
Q 2425 1766 2131 1766 
L 1791 1766 
z
" transform="scale(0.015625)"/>
      <path id="DejaVuSans-Bold-6e" d="M 4056 2131 
L 4056 0 
L 2931 0 
L 2931 347 
L 2931 1631 
Q 2931 2084 2911 2256 
Q 2891 2428 2841 2509 
Q 2775 2619 2662 2680 
Q 2550 2741 2406 2741 
Q 2056 2741 1856 2470 
Q 1656 2200 1656 1722 
L 1656 0 
L 538 0 
L 538 3500 
L 1656 3500 
L 1656 2988 
Q 1909 3294 2193 3439 
Q 2478 3584 2822 3584 
Q 3428 3584 3742 3212 
Q 4056 2841 4056 2131 
z
" transform="scale(0.015625)"/>
     </defs>
     <use xlink:href="#DejaVuSans-Bold-54"/>
     <use xlink:href="#DejaVuSans-Bold-65" x="54.962891"/>
     <use xlink:href="#DejaVuSans-Bold-73" x="122.785156"/>
     <use xlink:href="#DejaVuSans-Bold-74" x="182.306641"/>
     <use xlink:href="#DejaVuSans-Bold-20" x="230.109375"/>
     <use xlink:href="#DejaVuSans-Bold-52" x="264.923828"/>
     <use xlink:href="#DejaVuSans-Bold-75" x="341.925781"/>
     <use xlink:href="#DejaVuSans-Bold-6e" x="413.117188"/>
    </g>
   </g>
   <g id="text_4">
    <!-- Evidence -->
    <g style="fill: #1f2937" transform="translate(389.248824 119.757872) scale(0.09 -0.09)">
     <defs>
      <path id="DejaVuSans-Bold-45" d="M 588 4666 
L 3834 4666 
L 3834 3756 
L 1791 3756 
L 1791 2888 
L 3713 2888 
L 3713 1978 
L 1791 1978 
L 1791 909 
L 3903 909 
L 3903 0 
L 588 0 
L 588 4666 
z
" transform="scale(0.015625)"/>
      <path id="DejaVuSans-Bold-76" d="M 97 3500 
L 1216 3500 
L 2088 1081 
L 2956 3500 
L 4078 3500 
L 2700 0 
L 1472 0 
L 97 3500 
z
" transform="scale(0.015625)"/>
      <path id="DejaVuSans-Bold-63" d="M 3366 3391 
L 3366 2478 
Q 3138 2634 2908 2709 
Q 2678 2784 2431 2784 
Q 1963 2784 1702 2511 
Q 1441 2238 1441 1747 
Q 1441 1256 1702 982 
Q 1963 709 2431 709 
Q 2694 709 2930 787 
Q 3166 866 3366 1019 
L 3366 103 
Q 3103 6 2833 -42 
Q 2563 -91 2291 -91 
Q 1344 -91 809 395 
Q 275 881 275 1747 
Q 275 2613 809 3098 
Q 1344 3584 2291 3584 
Q 2566 3584 2833 3536 
Q 3100 3488 3366 3391 
z
" transform="scale(0.015625)"/>
     </defs>
     <use xlink:href="#DejaVuSans-Bold-45"/>
     <use xlink:href="#DejaVuSans-Bold-76" x="68.310547"/>
     <use xlink:href="#DejaVuSans-Bold-69" x="133.496094"/>
     <use xlink:href="#DejaVuSans-Bold-64" x="167.773438"/>
     <use xlink:href="#DejaVuSans-Bold-65" x="239.355469"/>
     <use xlink:href="#DejaVuSans-Bold-6e" x="307.177734"/>
     <use xlink:href="#DejaVuSans-Bold-63" x="378.369141"/>
     <use xlink:href="#DejaVuSans-Bold-65" x="437.646484"/>
    </g>
   </g>
   <g id="text_5">
    <!-- Paper Assets -->
    <g style="fill: #1f2937" transform="translate(230.40351 221.173984) scale(0.09 -0.09)">
     <defs>
      <path id="DejaVuSans-Bold-50" d="M 588 4666 
L 2584 4666 
Q 3475 4666 3951 4270 
Q 4428 3875 4428 3144 
Q 4428 2409 3951 2014 
Q 3475 1619 2584 1619 
L 1791 1619 
L 1791 0 
L 588 0 
L 588 4666 
z
M 1791 3794 
L 1791 2491 
L 2456 2491 
Q 2806 2491 2997 2661 
Q 3188 2831 3188 3144 
Q 3188 3456 2997 3625 
Q 2806 3794 2456 3794 
L 1791 3794 
z
" transform="scale(0.015625)"/>
      <path id="DejaVuSans-Bold-61" d="M 2106 1575 
Q 1756 1575 1579 1456 
Q 1403 1338 1403 1106 
Q 1403 894 1545 773 
Q 1688 653 1941 653 
Q 2256 653 2472 879 
Q 2688 1106 2688 1447 
L 2688 1575 
L 2106 1575 
z
M 3816 1997 
L 3816 0 
L 2688 0 
L 2688 519 
Q 2463 200 2181 54 
Q 1900 -91 1497 -91 
Q 953 -91 614 226 
Q 275 544 275 1050 
Q 275 1666 698 1953 
Q 1122 2241 2028 2241 
L 2688 2241 
L 2688 2328 
Q 2688 2594 2478 2717 
Q 2269 2841 1825 2841 
Q 1466 2841 1156 2769 
Q 847 2697 581 2553 
L 581 3406 
Q 941 3494 1303 3539 
Q 1666 3584 2028 3584 
Q 2975 3584 3395 3211 
Q 3816 2838 3816 1997 
z
" transform="scale(0.015625)"/>
      <path id="DejaVuSans-Bold-70" d="M 1656 506 
L 1656 -1331 
L 538 -1331 
L 538 3500 
L 1656 3500 
L 1656 2988 
Q 1888 3294 2169 3439 
Q 2450 3584 2816 3584 
Q 3463 3584 3878 3070 
Q 4294 2556 4294 1747 
Q 4294 938 3878 423 
Q 3463 -91 2816 -91 
Q 2450 -91 2169 54 
Q 1888 200 1656 506 
z
M 2400 2772 
Q 2041 2772 1848 2508 
Q 1656 2244 1656 1747 
Q 1656 1250 1848 986 
Q 2041 722 2400 722 
Q 2759 722 2948 984 
Q 3138 1247 3138 1747 
Q 3138 2247 2948 2509 
Q 2759 2772 2400 2772 
z
" transform="scale(0.015625)"/>
      <path id="DejaVuSans-Bold-72" d="M 3138 2547 
Q 2991 2616 2845 2648 
Q 2700 2681 2553 2681 
Q 2122 2681 1889 2404 
Q 1656 2128 1656 1613 
L 1656 0 
L 538 0 
L 538 3500 
L 1656 3500 
L 1656 2925 
Q 1872 3269 2151 3426 
Q 2431 3584 2822 3584 
Q 2878 3584 2943 3579 
Q 3009 3575 3134 3559 
L 3138 2547 
z
" transform="scale(0.015625)"/>
      <path id="DejaVuSans-Bold-41" d="M 3419 850 
L 1538 850 
L 1241 0 
L 31 0 
L 1759 4666 
L 3194 4666 
L 4922 0 
L 3713 0 
L 3419 850 
z
M 1838 1716 
L 3116 1716 
L 2478 3572 
L 1838 1716 
z
" transform="scale(0.015625)"/>
     </defs>
     <use xlink:href="#DejaVuSans-Bold-50"/>
     <use xlink:href="#DejaVuSans-Bold-61" x="70.666016"/>
     <use xlink:href="#DejaVuSans-Bold-70" x="138.146484"/>
     <use xlink:href="#DejaVuSans-Bold-65" x="209.728516"/>
     <use xlink:href="#DejaVuSans-Bold-72" x="277.550781"/>
     <use xlink:href="#DejaVuSans-Bold-20" x="326.867188"/>
     <use xlink:href="#DejaVuSans-Bold-41" x="361.681641"/>
     <use xlink:href="#DejaVuSans-Bold-73" x="439.074219"/>
     <use xlink:href="#DejaVuSans-Bold-73" x="498.595703"/>
     <use xlink:href="#DejaVuSans-Bold-65" x="558.117188"/>
     <use xlink:href="#DejaVuSans-Bold-74" x="625.939453"/>
     <use xlink:href="#DejaVuSans-Bold-73" x="673.742188"/>
    </g>
   </g>
   <g id="patch_7">
    <path d="M 116.802958 117.274434 
Q 125.051158 117.274434 131.622307 117.274434 
" style="fill: none; stroke: #1f2937; stroke-width: 1.5; stroke-linecap: round"/>
    <path d="M 126.822307 114.874434 
L 131.622307 117.274434 
L 126.822307 119.674434 
" style="fill: none; stroke: #1f2937; stroke-width: 1.5; stroke-linecap: round"/>
   </g>
   <g id="patch_8">
    <path d="M 229.530852 117.274434 
Q 237.779053 117.274434 244.350202 117.274434 
" style="fill: none; stroke: #1f2937; stroke-width: 1.5; stroke-linecap: round"/>
    <path d="M 239.550202 114.874434 
L 244.350202 117.274434 
L 239.550202 119.674434 
" style="fill: none; stroke: #1f2937; stroke-width: 1.5; stroke-linecap: round"/>
   </g>
   <g id="patch_9">
    <path d="M 342.258747 117.274434 
Q 350.506947 117.274434 357.078096 117.274434 
" style="fill: none; stroke: #1f2937; stroke-width: 1.5; stroke-linecap: round"/>
    <path d="M 352.278096 114.874434 
L 357.078096 117.274434 
L 352.278096 119.674434 
" style="fill: none; stroke: #1f2937; stroke-width: 1.5; stroke-linecap: round"/>
   </g>
   <g id="patch_10">
    <path d="M 410.179674 142.689986 
Q 358.19449 166.445508 307.734643 189.504001 
" style="fill: none; stroke: #1f2937; stroke-width: 1.5; stroke-linecap: round"/>
    <path d="M 313.097916 189.691873 
L 307.734643 189.504001 
L 311.102904 185.326105 
" style="fill: none; stroke: #1f2937; stroke-width: 1.5; stroke-linecap: round"/>
   </g>
   <g id="text_6">
    <!-- CI/CD Pipeline and Test Environment -->
    <g style="fill: #262626" transform="translate(129.701869 17.077969) scale(0.13 -0.13)">
     <defs>
      <path id="DejaVuSans-Bold-49" d="M 588 4666 
L 1791 4666 
L 1791 0 
L 588 0 
L 588 4666 
z
" transform="scale(0.015625)"/>
      <path id="DejaVuSans-Bold-2f" d="M 1644 4666 
L 2338 4666 
L 691 -594 
L 0 -594 
L 1644 4666 
z
" transform="scale(0.015625)"/>
      <path id="DejaVuSans-Bold-44" d="M 1791 3756 
L 1791 909 
L 2222 909 
Q 2959 909 3348 1275 
Q 3738 1641 3738 2338 
Q 3738 3031 3350 3393 
Q 2963 3756 2222 3756 
L 1791 3756 
z
M 588 4666 
L 1856 4666 
Q 2919 4666 3439 4514 
Q 3959 4363 4331 4000 
Q 4659 3684 4818 3271 
Q 4978 2859 4978 2338 
Q 4978 1809 4818 1395 
Q 4659 981 4331 666 
Q 3956 303 3431 151 
Q 2906 0 1856 0 
L 588 0 
L 588 4666 
z
" transform="scale(0.015625)"/>
     </defs>
     <use xlink:href="#DejaVuSans-Bold-43"/>
     <use xlink:href="#DejaVuSans-Bold-49" x="73.388672"/>
     <use xlink:href="#DejaVuSans-Bold-2f" x="110.595703"/>
     <use xlink:href="#DejaVuSans-Bold-43" x="147.119141"/>
     <use xlink:href="#DejaVuSans-Bold-44" x="220.507812"/>
     <use xlink:href="#DejaVuSans-Bold-20" x="303.515625"/>
     <use xlink:href="#DejaVuSans-Bold-50" x="338.330078"/>
     <use xlink:href="#DejaVuSans-Bold-69" x="411.621094"/>
     <use xlink:href="#DejaVuSans-Bold-70" x="445.898438"/>
     <use xlink:href="#DejaVuSans-Bold-65" x="517.480469"/>
     <use xlink:href="#DejaVuSans-Bold-6c" x="585.302734"/>
     <use xlink:href="#DejaVuSans-Bold-69" x="619.580078"/>
     <use xlink:href="#DejaVuSans-Bold-6e" x="653.857422"/>
     <use xlink:href="#DejaVuSans-Bold-65" x="725.048828"/>
     <use xlink:href="#DejaVuSans-Bold-20" x="792.871094"/>
     <use xlink:href="#DejaVuSans-Bold-61" x="827.685547"/>
     <use xlink:href="#DejaVuSans-Bold-6e" x="895.166016"/>
     <use xlink:href="#DejaVuSans-Bold-64" x="966.357422"/>
     <use xlink:href="#DejaVuSans-Bold-20" x="1037.939453"/>
     <use xlink:href="#DejaVuSans-Bold-54" x="1072.753906"/>
     <use xlink:href="#DejaVuSans-Bold-65" x="1127.716797"/>
     <use xlink:href="#DejaVuSans-Bold-73" x="1195.539062"/>
     <use xlink:href="#DejaVuSans-Bold-74" x="1255.060547"/>
     <use xlink:href="#DejaVuSans-Bold-20" x="1302.863281"/>
     <use xlink:href="#DejaVuSans-Bold-45" x="1337.677734"/>
     <use xlink:href="#DejaVuSans-Bold-6e" x="1405.988281"/>
     <use xlink:href="#DejaVuSans-Bold-76" x="1477.179688"/>
     <use xlink:href="#DejaVuSans-Bold-69" x="1542.365234"/>
     <use xlink:href="#DejaVuSans-Bold-72" x="1576.642578"/>
     <use xlink:href="#DejaVuSans-Bold-6f" x="1625.958984"/>
     <use xlink:href="#DejaVuSans-Bold-6e" x="1694.660156"/>
     <use xlink:href="#DejaVuSans-Bold-6d" x="1765.851562"/>
     <use xlink:href="#DejaVuSans-Bold-65" x="1870.050781"/>
     <use xlink:href="#DejaVuSans-Bold-6e" x="1937.873047"/>
     <use xlink:href="#DejaVuSans-Bold-74" x="2009.064453"/>
    </g>
   </g>
  </g>
 </g>
 <defs>
  <clipPath id="pd170cb9c93">
   <rect x="7.2" y="25.077969" width="512.39952" height="307.321551"/>
  </clipPath>
 </defs>
</svg>
